<?xml version="1.0" standalone="no"?>
<!DOCTYPE svg PUBLIC "-//W3C//DTD SVG 20010904//EN"
 "http://www.w3.org/TR/2001/REC-SVG-20010904/DTD/svg10.dtd">
<svg version="1.0" xmlns="http://www.w3.org/2000/svg"
 width="1024.000000pt" height="1024.000000pt" viewBox="0 0 1024.000000 1024.000000"
 preserveAspectRatio="xMidYMid meet">
<metadata>
Created by potrace 1.14, written by Peter Selinger 2001-2017
</metadata>
<g transform="translate(0.000000,1024.000000) scale(0.100000,-0.100000)"
fill="#000000" stroke="none">
<path d="M1669 9606 c-3 -3 -52 -8 -110 -10 -57 -3 -115 -8 -129 -11 -14 -4
-34 -8 -45 -9 -11 -2 -20 -4 -20 -5 0 -3 -11 -6 -51 -15 -45 -10 -168 -67
-232 -109 -57 -37 -151 -115 -184 -152 -54 -62 -73 -87 -101 -130 -17 -27 -35
-53 -40 -56 -5 -3 -8 -9 -8 -13 1 -3 -10 -31 -24 -61 -14 -31 -25 -62 -25 -70
0 -7 -4 -16 -9 -19 -5 -3 -12 -20 -15 -38 -3 -18 -9 -44 -12 -58 -3 -14 -9
-52 -15 -85 -11 -67 -8 -7297 3 -7330 3 -11 11 -41 17 -67 22 -94 64 -190 127
-288 142 -223 359 -368 636 -426 62 -13 223 -18 240 -8 4 3 8 1 8 -4 0 -5 17
-6 40 -2 22 4 40 4 40 0 0 -4 18 -4 40 0 22 4 40 4 40 0 0 -4 18 -4 40 0 22 4
58 4 80 0 22 -4 40 -5 40 -1 0 3 33 5 72 3 94 -4 87 -4 128 -3 19 1 44 1 55 1
98 0 119 -1 126 -5 4 -3 10 -2 13 3 3 5 24 6 48 3 24 -3 71 -4 106 -1 35 3 68
3 74 -1 5 -4 24 -3 42 1 18 4 41 4 51 0 11 -4 28 -4 39 -1 10 4 41 4 68 1 27
-4 51 -4 53 0 2 4 23 4 47 1 23 -3 75 -4 115 -1 40 3 73 3 73 0 0 -6 140 -2
157 4 7 3 13 2 13 -3 0 -5 18 -5 40 -1 22 4 40 4 40 0 0 -4 18 -4 40 0 22 4
40 4 40 0 0 -4 18 -4 40 0 22 4 40 4 40 0 0 -4 18 -4 40 0 22 4 40 4 40 0 0
-4 18 -4 40 0 22 4 40 4 40 0 0 -4 18 -4 40 0 23 4 40 3 40 -2 0 -5 4 -6 10
-3 8 5 67 7 163 4 9 0 42 1 72 1 30 1 59 -1 65 -5 5 -3 10 -2 10 3 0 4 23 6
50 2 28 -4 50 -4 50 -1 0 3 24 5 52 3 47 -2 69 -2 111 -1 6 0 30 0 52 0 22 -1
64 0 93 1 29 0 54 -1 57 -4 3 -2 27 -2 55 2 27 4 50 2 50 -2 0 -5 4 -6 10 -3
9 5 32 6 120 4 8 0 31 0 50 0 19 1 42 1 50 1 8 -1 44 -1 80 0 36 0 100 0 143
0 43 -1 82 2 87 5 6 3 10 2 10 -3 0 -5 17 -6 40 -2 22 4 40 4 40 0 0 -4 18 -4
40 0 22 4 40 4 40 0 0 -4 18 -4 40 0 22 4 40 4 40 0 0 -4 18 -4 40 0 22 4 40
4 40 0 0 -4 18 -4 40 0 22 4 40 4 40 0 0 -4 18 -4 40 0 22 4 40 4 40 0 0 -4
18 -4 40 0 22 4 58 4 80 0 22 -4 40 -5 40 -1 0 3 33 5 72 3 94 -4 87 -4 128
-3 19 1 44 1 55 1 98 0 119 -1 126 -5 4 -3 10 -2 13 3 3 5 24 6 48 3 24 -3 71
-4 106 -1 35 3 68 3 74 -1 5 -4 24 -3 42 1 18 4 41 4 51 0 11 -4 28 -4 39 -1
10 4 41 4 68 1 27 -4 51 -4 53 0 2 4 23 4 47 1 23 -3 75 -4 115 -1 40 3 73 3
73 0 0 -6 140 -2 157 4 7 3 13 2 13 -3 0 -5 18 -5 40 -1 22 4 40 4 40 0 0 -4
18 -4 40 0 22 4 40 4 40 0 0 -4 18 -4 40 0 22 4 40 4 40 0 0 -4 18 -4 40 0 22
4 40 4 40 0 0 -4 18 -4 40 0 22 4 40 4 40 0 0 -4 18 -4 40 0 23 4 40 3 40 -2
0 -5 4 -6 10 -3 8 5 67 7 163 4 9 0 42 1 72 1 30 1 59 -1 65 -5 5 -3 10 -2 10
3 0 4 22 6 50 2 27 -4 50 -4 50 -1 0 3 24 5 52 3 47 -2 69 -2 111 -1 6 0 30 0
52 0 22 -1 64 0 93 1 29 0 54 -1 57 -4 3 -2 27 -2 55 2 27 4 50 2 50 -2 0 -5
4 -6 10 -3 8 5 43 6 120 4 49 -2 206 15 230 25 8 3 26 7 40 10 14 2 51 14 82
26 32 12 61 21 64 20 4 -1 10 2 13 7 3 5 27 20 52 32 57 29 149 97 212 158
114 111 219 291 253 434 34 142 33 73 33 3774 0 3932 4 3610 -42 3802 -2 7 -6
16 -10 19 -4 4 -7 13 -7 20 0 22 -59 141 -103 206 -56 84 -95 127 -187 209
-41 35 -150 104 -215 133 -61 28 -155 61 -166 58 -4 -1 -22 3 -40 8 -19 6 -69
12 -113 15 -43 3 -82 8 -87 11 -5 3 -9 2 -9 -3 0 -4 -24 -7 -52 -5 -47 2 -69
2 -110 1 -7 0 -31 0 -53 0 -22 1 -64 0 -93 -1 -29 0 -54 1 -57 4 -3 2 -27 2
-55 -2 -27 -4 -50 -2 -50 2 0 5 -4 6 -10 3 -9 -5 -32 -6 -120 -4 -8 0 -31 0
-50 0 -19 -1 -42 -1 -50 -1 -8 1 -44 1 -80 0 -36 0 -100 0 -143 0 -43 1 -82
-2 -87 -5 -6 -3 -10 -2 -10 3 0 5 -17 6 -40 2 -22 -4 -40 -4 -40 0 0 4 -18 4
-40 0 -22 -4 -40 -4 -40 0 0 4 -18 4 -40 0 -22 -4 -40 -4 -40 0 0 4 -18 4 -40
0 -22 -4 -40 -4 -40 0 0 4 -18 4 -40 0 -22 -4 -40 -4 -40 0 0 4 -18 4 -40 0
-22 -4 -40 -4 -40 0 0 4 -18 4 -40 0 -22 -4 -58 -4 -80 0 -22 4 -40 5 -40 1 0
-3 -33 -5 -72 -3 -94 4 -87 4 -128 3 -19 -1 -44 -1 -55 -1 -98 0 -119 1 -126
5 -4 3 -10 2 -13 -3 -3 -5 -24 -6 -48 -3 -24 3 -71 4 -106 1 -35 -3 -68 -3
-74 1 -5 4 -24 3 -42 -1 -18 -4 -41 -4 -51 0 -11 4 -28 4 -39 1 -10 -4 -41 -4
-68 -1 -27 4 -51 4 -53 0 -2 -4 -23 -4 -47 -1 -23 3 -75 4 -115 1 -40 -3 -73
-3 -73 0 0 6 -140 2 -157 -4 -7 -3 -13 -2 -13 3 0 5 -18 5 -40 1 -22 -4 -40
-4 -40 0 0 4 -18 4 -40 0 -22 -4 -40 -4 -40 0 0 4 -18 4 -40 0 -22 -4 -40 -4
-40 0 0 4 -18 4 -40 0 -22 -4 -40 -4 -40 0 0 4 -18 4 -40 0 -22 -4 -40 -4 -40
0 0 4 -18 4 -40 0 -23 -4 -40 -3 -40 2 0 5 -4 6 -10 3 -8 -5 -67 -7 -162 -4
-10 0 -43 -1 -73 -1 -30 -1 -59 1 -65 5 -5 3 -10 2 -10 -3 0 -4 -22 -6 -50 -2
-27 4 -50 4 -50 1 0 -3 -24 -5 -52 -3 -47 2 -69 2 -110 1 -7 0 -31 0 -53 0
-22 1 -64 0 -93 -1 -29 0 -54 1 -57 4 -3 2 -27 2 -55 -2 -27 -4 -50 -2 -50 2
0 5 -4 6 -10 3 -9 -5 -32 -6 -120 -4 -8 0 -31 0 -50 0 -19 -1 -42 -1 -50 -1
-8 1 -44 1 -80 0 -36 0 -100 0 -143 0 -43 1 -82 -2 -87 -5 -6 -3 -10 -2 -10 3
0 5 -17 6 -40 2 -22 -4 -40 -4 -40 0 0 4 -18 4 -40 0 -22 -4 -40 -4 -40 0 0 4
-18 4 -40 0 -22 -4 -40 -4 -40 0 0 4 -18 4 -40 0 -22 -4 -40 -4 -40 0 0 4 -18
4 -40 0 -22 -4 -40 -4 -40 0 0 4 -18 4 -40 0 -22 -4 -40 -4 -40 0 0 4 -18 4
-40 0 -22 -4 -58 -4 -80 0 -22 4 -40 5 -40 1 0 -3 -33 -5 -72 -3 -94 4 -87 4
-128 3 -19 -1 -44 -1 -55 -1 -98 0 -119 1 -126 5 -4 3 -10 2 -13 -3 -3 -5 -24
-6 -48 -3 -24 3 -71 4 -106 1 -35 -3 -68 -3 -74 1 -5 4 -24 3 -42 -1 -18 -4
-41 -4 -51 0 -11 4 -28 4 -39 1 -10 -4 -41 -4 -68 -1 -27 4 -51 4 -53 0 -2 -4
-23 -4 -47 -1 -23 3 -75 4 -115 1 -40 -3 -73 -3 -73 0 0 6 -140 2 -157 -4 -7
-3 -13 -2 -13 3 0 5 -18 5 -40 1 -22 -4 -40 -4 -40 0 0 4 -18 4 -40 0 -22 -4
-41 -3 -42 2 -2 5 -6 7 -9 4z m3989 -1919 c53 -14 69 -19 112 -40 24 -12 65
-42 91 -67 81 -79 114 -172 114 -320 0 -104 -6 -149 -26 -195 -7 -16 -13 -32
-14 -35 -7 -21 -21 -47 -29 -57 -6 -6 -21 -25 -34 -41 -23 -30 -110 -92 -134
-96 -7 -1 -17 -4 -23 -8 -39 -23 -222 -39 -295 -25 -113 22 -184 57 -246 124
-44 46 -91 134 -100 186 -11 62 -12 217 -2 259 5 24 11 50 13 59 8 40 51 106
101 156 30 30 54 52 54 49 0 -3 17 3 38 14 66 34 141 48 252 45 58 -1 115 -5
128 -8z m1767 -849 c0 -207 4 -380 8 -385 5 -4 172 -8 372 -8 200 0 367 -3
371 -8 6 -5 9 -389 5 -487 -1 -13 -49 -15 -376 -15 -249 1 -376 -3 -378 -10
-5 -18 1 -1349 6 -1370 35 -127 76 -182 164 -225 39 -18 114 -33 173 -34 42 0
185 18 185 24 0 1 14 3 30 5 17 3 67 18 113 34 57 19 85 25 87 17 32 -94 57
-175 61 -192 2 -12 15 -56 29 -98 14 -43 27 -86 28 -97 2 -10 6 -22 10 -25 14
-15 5 -24 -45 -47 -61 -28 -149 -63 -183 -73 -105 -32 -184 -55 -200 -58 -11
-3 -42 -9 -68 -15 -27 -6 -53 -9 -58 -6 -5 4 -9 2 -9 -2 0 -5 -8 -9 -17 -10
-10 0 -54 -4 -98 -8 -222 -21 -460 4 -590 61 -22 10 -42 18 -45 19 -20 5 -60
30 -60 37 0 4 -6 8 -14 8 -18 0 -136 118 -136 136 0 8 -4 14 -9 14 -17 0 -84
170 -95 241 -3 20 -8 42 -10 50 -13 35 -16 223 -16 891 -1 666 -2 718 -18 727
-9 4 -95 8 -190 7 -96 0 -177 1 -181 4 -4 3 -8 105 -7 228 0 245 -7 221 64
228 55 5 175 43 235 74 118 60 195 136 255 252 35 67 79 198 88 257 3 20 7 43
10 50 3 8 7 35 11 60 3 26 6 55 8 66 1 11 3 29 4 41 1 20 4 21 244 20 l242 -1
0 -377z m-4070 -452 c44 -3 87 -7 95 -10 8 -3 33 -8 55 -11 34 -4 91 -15 130
-25 6 -1 15 -2 20 -1 29 4 959 0 964 -4 7 -7 8 -404 1 -415 -3 -6 -24 -12 -45
-14 -37 -5 -69 -7 -275 -22 -78 -6 -119 -10 -133 -12 -5 -1 5 -21 21 -44 40
-58 63 -97 60 -100 -2 -2 7 -17 20 -35 12 -17 22 -40 22 -50 0 -10 4 -23 9
-29 10 -9 19 -44 27 -104 3 -19 8 -36 12 -38 14 -4 -3 -331 -18 -349 -2 -2 -3
-6 -5 -10 -1 -5 -5 -21 -10 -38 -4 -16 -17 -50 -28 -75 -11 -25 -20 -48 -19
-52 1 -5 -3 -8 -9 -8 -5 0 -8 -4 -4 -9 3 -5 0 -15 -7 -23 -7 -7 -26 -33 -43
-57 -45 -68 -127 -145 -208 -196 -40 -25 -76 -45 -81 -44 -5 0 -12 -3 -15 -9
-19 -28 -270 -103 -396 -118 -27 -3 -66 -8 -85 -10 -82 -11 -334 -5 -415 10
-16 3 -46 8 -65 12 -19 3 -43 7 -52 10 -12 4 -25 -8 -44 -38 -15 -24 -40 -62
-56 -85 -15 -23 -28 -46 -28 -52 0 -6 -4 -11 -9 -11 -5 0 -12 -11 -15 -25 -4
-14 -11 -25 -16 -25 -6 0 -10 -7 -10 -16 0 -10 6 -14 14 -11 8 3 17 3 20 0 3
-4 34 -7 69 -8 64 -3 256 -13 362 -20 33 -3 101 -7 150 -9 50 -3 108 -7 130
-10 22 -3 76 -8 120 -11 44 -4 107 -9 140 -12 33 -3 68 -6 78 -7 9 0 17 -4 17
-9 0 -4 4 -5 10 -2 5 3 49 -1 97 -10 48 -9 97 -18 108 -20 11 -2 35 -8 53 -13
18 -6 33 -11 35 -11 31 3 183 -63 261 -114 41 -25 114 -105 140 -150 31 -57
66 -160 73 -219 9 -76 10 -239 1 -287 -4 -25 -10 -59 -13 -75 -6 -38 -24 -94
-42 -128 -7 -15 -14 -31 -14 -35 -1 -5 -10 -20 -20 -34 -10 -14 -16 -29 -12
-33 3 -3 1 -6 -5 -6 -6 0 -18 -13 -26 -28 -22 -43 -142 -158 -217 -208 -111
-74 -247 -131 -414 -173 -22 -6 -42 -11 -45 -11 -3 -1 -23 -5 -45 -11 -41 -10
-117 -22 -147 -23 -10 0 -18 -3 -18 -6 0 -9 -152 -14 -400 -14 -211 0 -299 4
-425 18 -203 23 -398 76 -510 138 -27 15 -61 33 -75 40 -67 34 -191 191 -204
258 -2 8 -6 22 -9 30 -4 8 -9 41 -11 73 -2 32 -6 60 -9 63 -3 4 -2 16 3 28 4
13 4 29 -1 39 -7 12 -6 17 2 17 7 0 10 3 7 6 -9 8 31 147 48 165 8 8 14 19 14
24 0 18 57 91 125 163 39 41 71 78 73 83 2 5 -5 12 -15 16 -10 3 -26 13 -35
21 -10 8 -18 12 -18 8 0 -4 -21 14 -46 41 -80 83 -112 194 -91 315 8 43 48
133 74 166 61 78 157 177 318 327 57 53 59 56 41 70 -11 8 -26 15 -33 15 -7 0
-13 5 -13 10 0 6 -4 10 -10 10 -21 0 -190 157 -190 178 0 6 -4 12 -9 12 -5 0
-13 9 -16 20 -3 11 -12 26 -18 33 -12 12 -52 92 -67 132 -29 79 -51 180 -54
251 -1 33 -5 65 -10 72 -4 6 -4 12 1 12 4 0 9 30 9 68 2 60 10 157 14 157 2 0
6 18 14 63 16 86 81 222 149 312 42 55 136 150 149 150 4 0 13 6 20 13 31 28
79 57 152 92 81 38 216 88 216 79 0 -3 6 -2 13 3 6 4 17 8 22 10 6 1 21 5 35
8 48 12 128 23 225 31 44 3 81 7 82 8 4 3 175 -2 258 -8z m2615 -1079 c0
-1153 -2 -1116 46 -1124 11 -1 42 -5 70 -8 28 -3 62 -8 75 -11 35 -7 111 -16
132 -16 16 1 17 -15 17 -203 l0 -203 -125 2 c-69 0 -125 -3 -125 -7 0 -5 -5
-5 -12 -1 -15 10 -61 10 -76 0 -7 -4 -12 -4 -12 1 0 4 -85 8 -190 8 -104 0
-190 -4 -190 -8 0 -5 -5 -5 -12 -1 -15 10 -61 10 -76 0 -7 -4 -12 -4 -12 1 0
4 -104 8 -230 8 -127 0 -230 -4 -230 -8 0 -5 -5 -5 -12 -1 -7 4 -42 7 -79 6
l-68 -2 1 89 c0 49 -3 94 -7 100 -3 6 -3 11 2 11 4 0 7 45 6 100 -2 96 -1 100
20 105 23 5 95 14 160 20 21 2 47 7 57 10 11 4 32 8 47 11 33 6 56 32 49 57
-2 9 -1 17 2 17 9 0 8 187 0 195 -3 4 -2 20 2 36 5 16 5 31 0 34 -5 3 -6 15
-1 28 5 14 5 30 0 40 -6 9 -6 17 -2 17 10 0 8 103 -1 119 -4 6 -4 11 1 11 7 0
9 164 3 195 -3 12 -1 87 3 133 2 17 -1 32 -6 32 -4 0 -5 5 -2 10 9 15 12 140
4 146 -4 2 -4 18 1 34 5 17 5 32 0 35 -5 3 -6 15 -1 28 5 14 5 30 0 40 -6 9
-6 17 -2 17 10 0 8 103 -1 119 -4 6 -4 11 1 11 10 0 10 186 0 196 -4 4 -3 12
2 18 5 6 3 30 -3 55 -8 33 -19 49 -41 61 -29 16 -134 57 -165 65 -8 2 -41 13
-73 25 -64 24 -60 13 -42 115 3 17 8 53 10 80 2 28 6 59 8 70 3 11 8 45 12 75
3 30 9 63 11 73 5 16 39 17 530 17 l524 0 0 -1083z"/>
<path d="M3125 5883 c-60 -11 -142 -37 -174 -55 -99 -55 -182 -154 -216 -258
-16 -51 -28 -200 -16 -200 3 0 7 -15 8 -34 3 -69 80 -186 166 -253 22 -18 124
-62 157 -69 96 -19 196 -19 285 0 43 9 135 48 135 57 0 5 6 9 14 9 24 0 110
95 143 157 37 68 44 95 48 184 10 228 -124 403 -347 455 -30 7 -177 12 -203 7z"/>
<path d="M2650 3551 c0 -3 -13 -19 -28 -36 -79 -86 -116 -200 -91 -282 19 -59
150 -153 236 -169 12 -2 34 -9 48 -14 14 -5 25 -8 25 -5 0 2 14 0 31 -5 79
-23 319 -32 459 -18 67 7 203 33 230 45 8 3 20 7 27 9 31 6 144 69 174 96 44
40 60 72 66 134 8 70 -13 106 -79 138 -29 13 -71 28 -93 31 -144 24 -183 28
-540 51 -44 3 -109 7 -145 9 -168 10 -267 16 -292 19 -16 2 -28 1 -28 -3z"/>
</g>
</svg>
